<svg width="186" height="174" viewBox="0 0 186 174" fill="none" xmlns="http://www.w3.org/2000/svg">
<path d="M88.6742 66.8576C88.6742 68.1504 88.868 69.5101 89.2556 70.9367C89.6432 72.3409 90.179 73.7786 90.863 75.2498C92.4135 74.3805 93.6789 73.5223 94.6593 72.6753C95.6397 71.8283 96.4035 70.9924 96.9508 70.1677C97.5208 69.3429 97.9084 68.5405 98.1136 67.7603C98.3188 66.9802 98.4214 66.2223 98.4214 65.4868C98.4214 64.7066 98.3188 63.9711 98.1136 63.2801C97.9084 62.5891 97.6006 61.9873 97.1902 61.4746C96.8026 60.9396 96.3009 60.5161 95.6853 60.2041C95.0925 59.892 94.3971 59.736 93.5991 59.736C92.7783 59.736 92.06 59.9477 91.4444 60.3712C90.8288 60.7725 90.3158 61.3074 89.9054 61.9761C89.495 62.6448 89.1872 63.4138 88.982 64.2831C88.7768 65.1301 88.6742 65.9883 88.6742 66.8576ZM91.547 101.83C93.4851 101.83 95.2635 101.53 96.8824 100.928C98.5012 100.326 99.9604 99.5235 101.26 98.5204C100.12 97.3614 98.9458 96.1131 97.7374 94.7757C96.5289 93.416 95.3433 92.0006 94.1805 90.5295C93.0405 89.0361 91.9346 87.4981 90.863 85.9155C89.8142 84.3329 88.868 82.7392 88.0244 81.1343C86.8615 82.1151 85.8811 83.0624 85.0831 83.9763C84.2851 84.8901 83.6353 85.804 83.1337 86.7179C82.6548 87.6095 82.3014 88.5123 82.0734 89.4261C81.8682 90.3177 81.7656 91.2316 81.7656 92.1678C81.7656 93.7281 82.0392 95.1101 82.5864 96.3137C83.1337 97.5174 83.8633 98.5316 84.7753 99.3563C85.6873 100.159 86.7247 100.772 87.8876 101.195C89.0732 101.619 90.293 101.83 91.547 101.83ZM119.523 79.6297C118.953 80.3207 118.383 80.9002 117.813 81.3683C117.266 81.8141 116.707 82.2265 116.137 82.6054C115.727 82.4048 115.26 82.2265 114.735 82.0705C114.211 81.9144 113.675 81.7807 113.128 81.6693C112.603 81.5355 112.09 81.4352 111.589 81.3683C111.087 81.3015 110.642 81.2569 110.255 81.2346C110.506 81.6358 110.699 82.0147 110.836 82.3714C110.996 82.7057 111.11 83.0735 111.178 83.4747C111.269 83.876 111.326 84.3218 111.349 84.8121C111.372 85.2802 111.383 85.8375 111.383 86.4839C111.383 88.0665 111.03 89.7382 110.323 91.4991C109.616 93.26 108.613 94.9763 107.314 96.6481C108.887 98.1192 110.335 99.3674 111.657 100.393C112.524 101.106 113.458 101.585 114.462 101.83C115.465 102.053 116.628 102.009 117.95 101.697L118.258 103.134C116.274 103.981 114.598 104.606 113.23 105.007C111.885 105.43 110.962 105.642 110.46 105.642C109.958 105.642 109.081 105.196 107.827 104.305C106.573 103.413 105.125 102.198 103.483 100.66C101.705 102.131 99.721 103.335 97.5322 104.271C95.3433 105.185 93.0063 105.642 90.521 105.642C88.4006 105.642 86.4625 105.363 84.7069 104.806C82.9512 104.271 81.4464 103.469 80.1924 102.399C78.9384 101.329 77.9579 100.003 77.2511 98.4201C76.5671 96.8152 76.2251 94.9652 76.2251 92.8699C76.2251 91.6217 76.4531 90.3512 76.9091 89.0584C77.3651 87.7655 78.0263 86.4839 78.8928 85.2133C79.7592 83.9428 80.8308 82.6946 82.1076 81.4686C83.3845 80.2427 84.8437 79.0613 86.4853 77.9245C85.8241 76.342 85.2997 74.7928 84.9121 73.2771C84.5245 71.7391 84.3307 70.2345 84.3307 68.7634C84.3307 66.9579 84.6385 65.2862 85.2541 63.7482C85.8697 62.2102 86.6905 60.8839 87.7166 59.7694C88.7426 58.6326 89.9168 57.7522 91.2392 57.1281C92.5845 56.4817 93.9753 56.1584 95.4117 56.1584C96.871 56.1584 98.0908 56.3925 99.0712 56.8606C100.074 57.3064 100.872 57.9082 101.465 58.6661C102.081 59.4239 102.514 60.3044 102.765 61.3074C103.038 62.2882 103.175 63.3135 103.175 64.3834C103.175 66.7239 102.423 68.9194 100.918 70.9701C99.436 72.9985 97.3384 74.8374 94.6251 76.4868C94.1919 76.7543 93.7815 77.0218 93.3939 77.2893C93.0063 77.5345 92.6301 77.7797 92.2653 78.0249C93.0633 79.4737 93.9525 80.9225 94.9329 82.3714C95.9361 83.8202 96.985 85.2468 98.0794 86.651C99.1966 88.0553 100.337 89.415 101.499 90.7301C102.685 92.0452 103.859 93.2823 105.022 94.4414C105.752 93.3269 106.299 92.2012 106.664 91.0644C107.051 89.9277 107.245 88.8577 107.245 87.8547C107.245 86.9185 107.086 86.0381 106.766 85.2133C106.447 84.3886 106.025 83.6753 105.501 83.0735C104.999 82.4494 104.418 81.959 103.757 81.6024C103.095 81.2457 102.434 81.0674 101.773 81.0674L101.021 80.1312C101.271 79.8415 101.636 79.5294 102.115 79.1951C102.617 78.8607 103.095 78.6044 103.552 78.4261H118.737L119.523 79.6297Z" fill="#EEDCA9"/>
<path d="M77.7441 159.39H67.5634L67.1938 158.436C68.1877 157.259 69.0584 156.216 69.8059 155.305C70.5619 154.386 71.2118 153.575 71.7554 152.87C72.2991 152.157 72.7493 151.535 73.1061 151.002C73.4713 150.469 73.7601 149.997 73.9725 149.585C74.1849 149.164 74.3335 148.786 74.4185 148.451C74.5119 148.116 74.5586 147.794 74.5586 147.485C74.5586 147.124 74.5204 146.789 74.4439 146.48C74.3675 146.162 74.2486 145.887 74.0872 145.655C73.9343 145.423 73.7304 145.243 73.4756 145.114C73.2292 144.985 72.9277 144.921 72.5709 144.921C72.2226 144.921 71.9211 144.998 71.6662 145.153C71.4199 145.307 71.2203 145.509 71.0674 145.758C70.9145 146.007 70.8125 146.291 70.7616 146.608C70.7106 146.918 70.7106 147.231 70.7616 147.549C70.6171 147.626 70.426 147.712 70.1882 147.807C69.9588 147.893 69.7125 147.974 69.4491 148.051C69.1858 148.129 68.9225 148.198 68.6592 148.258C68.4043 148.318 68.1792 148.356 67.9838 148.374L67.5379 147.497C67.5379 147.051 67.695 146.591 68.0093 146.119C68.3236 145.646 68.7483 145.217 69.2835 144.83C69.8272 144.435 70.4558 144.113 71.1693 143.864C71.8828 143.606 72.6389 143.478 73.4373 143.478C74.0914 143.478 74.686 143.546 75.2212 143.684C75.7563 143.821 76.2108 144.027 76.5846 144.302C76.9668 144.577 77.2599 144.916 77.4638 145.32C77.6676 145.724 77.7696 146.196 77.7696 146.737C77.7696 147.124 77.7143 147.51 77.6039 147.897C77.502 148.275 77.3321 148.683 77.0942 149.121C76.8649 149.55 76.5633 150.023 76.1896 150.538C75.8158 151.045 75.3614 151.62 74.8262 152.265C74.291 152.909 73.6667 153.63 72.9531 154.429C72.2481 155.228 71.4411 156.134 70.5322 157.148H75.6162C75.7606 157.148 75.888 157.113 75.9984 157.045C76.1174 156.967 76.2193 156.869 76.3042 156.748C76.3977 156.628 76.4741 156.491 76.5336 156.336C76.6016 156.181 76.6568 156.023 76.6992 155.859C76.8012 155.481 76.8734 155.052 76.9159 154.571L77.9352 154.816L77.7441 159.39Z" fill="#EEDCA9"/>
<path d="M88.4345 152.11C88.4345 150.933 88.3665 149.911 88.2306 149.044C88.1032 148.167 87.9205 147.442 87.6827 146.866C87.4448 146.291 87.1645 145.861 86.8417 145.578C86.5189 145.294 86.1664 145.153 85.7842 145.153C85.3934 145.153 85.0536 145.26 84.7648 145.475C84.476 145.689 84.2339 146.033 84.0385 146.505C83.8432 146.978 83.6945 147.592 83.5926 148.348C83.4991 149.095 83.4524 150.006 83.4524 151.079C83.4524 153.441 83.6775 155.202 84.1277 156.362C84.5864 157.521 85.2405 158.101 86.09 158.101C86.4807 158.101 86.8247 157.994 87.1221 157.779C87.4194 157.564 87.6615 157.221 87.8483 156.748C88.0437 156.267 88.1881 155.649 88.2816 154.893C88.3835 154.129 88.4345 153.201 88.4345 152.11ZM91.7601 151.633C91.7601 152.741 91.6114 153.789 91.3141 154.777C91.0253 155.765 90.6176 156.628 90.0909 157.367C89.5642 158.105 88.9356 158.694 88.2051 159.132C87.4746 159.561 86.6676 159.776 85.7842 159.776C84.9007 159.776 84.1107 159.561 83.4142 159.132C82.7176 158.694 82.123 158.105 81.6303 157.367C81.1376 156.628 80.7596 155.765 80.4963 154.777C80.2415 153.789 80.1141 152.741 80.1141 151.633C80.1141 150.525 80.25 149.477 80.5218 148.49C80.8021 147.502 81.2014 146.639 81.7195 145.9C82.2377 145.153 82.8663 144.564 83.6053 144.135C84.3443 143.697 85.1726 143.478 86.09 143.478C86.9904 143.478 87.7931 143.692 88.4982 144.122C89.2032 144.551 89.7978 145.135 90.282 145.874C90.7662 146.613 91.1315 147.48 91.3778 148.477C91.6327 149.464 91.7601 150.517 91.7601 151.633Z" fill="#EEDCA9"/>
<path d="M104.145 159.39H93.9644L93.5949 158.436C94.5888 157.259 95.4594 156.216 96.207 155.305C96.963 154.386 97.6128 153.575 98.1565 152.87C98.7001 152.157 99.1503 151.535 99.5071 151.002C99.8724 150.469 100.161 149.997 100.374 149.585C100.586 149.164 100.735 148.786 100.82 148.451C100.913 148.116 100.96 147.794 100.96 147.485C100.96 147.124 100.921 146.789 100.845 146.48C100.769 146.162 100.65 145.887 100.488 145.655C100.335 145.423 100.131 145.243 99.8766 145.114C99.6303 144.985 99.3287 144.921 98.9719 144.921C98.6237 144.921 98.3221 144.998 98.0673 145.153C97.8209 145.307 97.6213 145.509 97.4684 145.758C97.3155 146.007 97.2136 146.291 97.1626 146.608C97.1116 146.918 97.1116 147.231 97.1626 147.549C97.0182 147.626 96.8271 147.712 96.5892 147.807C96.3599 147.893 96.1135 147.974 95.8502 148.051C95.5869 148.129 95.3235 148.198 95.0602 148.258C94.8054 148.318 94.5803 148.356 94.3849 148.374L93.9389 147.497C93.9389 147.051 94.0961 146.591 94.4104 146.119C94.7247 145.646 95.1494 145.217 95.6846 144.83C96.2282 144.435 96.8568 144.113 97.5703 143.864C98.2839 143.606 99.0399 143.478 99.8384 143.478C100.492 143.478 101.087 143.546 101.622 143.684C102.157 143.821 102.612 144.027 102.986 144.302C103.368 144.577 103.661 144.916 103.865 145.32C104.069 145.724 104.171 146.196 104.171 146.737C104.171 147.124 104.115 147.51 104.005 147.897C103.903 148.275 103.733 148.683 103.495 149.121C103.266 149.55 102.964 150.023 102.591 150.538C102.217 151.045 101.762 151.62 101.227 152.265C100.692 152.909 100.068 153.63 99.3542 154.429C98.6491 155.228 97.8422 156.134 96.9332 157.148H102.017C102.162 157.148 102.289 157.113 102.399 157.045C102.518 156.967 102.62 156.869 102.705 156.748C102.799 156.628 102.875 156.491 102.935 156.336C103.003 156.181 103.058 156.023 103.1 155.859C103.202 155.481 103.274 155.052 103.317 154.571L104.336 154.816L104.145 159.39Z" fill="#EEDCA9"/>
<path d="M117.448 154.107C117.448 154.854 117.333 155.572 117.104 156.259C116.883 156.937 116.534 157.539 116.059 158.063C115.592 158.586 114.997 159.003 114.275 159.312C113.561 159.621 112.712 159.776 111.727 159.776C111.336 159.776 110.924 159.733 110.491 159.647C110.057 159.561 109.624 159.433 109.191 159.261C108.758 159.089 108.329 158.874 107.904 158.617C107.488 158.359 107.097 158.058 106.732 157.715L107.369 156.555C107.819 156.873 108.239 157.131 108.63 157.328C109.021 157.526 109.382 157.685 109.713 157.805C110.053 157.916 110.363 157.994 110.643 158.037C110.932 158.08 111.2 158.101 111.446 158.101C111.871 158.101 112.262 158.015 112.618 157.843C112.975 157.663 113.281 157.423 113.536 157.122C113.791 156.813 113.99 156.448 114.135 156.027C114.279 155.606 114.351 155.151 114.351 154.661C114.351 154.077 114.275 153.562 114.122 153.115C113.978 152.66 113.769 152.282 113.498 151.981C113.226 151.672 112.899 151.44 112.516 151.285C112.143 151.122 111.722 151.041 111.255 151.041C110.575 151.041 109.989 151.144 109.497 151.35C109.004 151.556 108.533 151.831 108.082 152.174L107.483 151.749C107.534 151.44 107.594 151.071 107.662 150.641C107.73 150.212 107.798 149.756 107.866 149.275C107.942 148.794 108.014 148.301 108.082 147.794C108.159 147.278 108.227 146.78 108.286 146.299C108.346 145.818 108.397 145.367 108.439 144.946C108.482 144.526 108.511 144.165 108.528 143.864H115.231C115.477 143.864 115.693 143.856 115.88 143.838C116.067 143.813 116.229 143.783 116.365 143.748C116.517 143.714 116.653 143.675 116.772 143.632L117.244 144.096C117.15 144.233 117.027 144.41 116.874 144.624C116.721 144.83 116.56 145.041 116.39 145.256C116.22 145.462 116.054 145.655 115.893 145.835C115.74 146.007 115.613 146.132 115.511 146.209H110.006C109.989 146.458 109.964 146.746 109.93 147.072C109.896 147.39 109.853 147.712 109.802 148.039C109.752 148.356 109.701 148.661 109.65 148.953C109.599 149.245 109.556 149.486 109.522 149.675C109.904 149.503 110.329 149.374 110.796 149.288C111.264 149.194 111.769 149.147 112.313 149.147C113.162 149.147 113.91 149.288 114.555 149.572C115.201 149.847 115.736 150.216 116.161 150.68C116.585 151.144 116.904 151.676 117.116 152.278C117.337 152.87 117.448 153.48 117.448 154.107Z" fill="#EEDCA9"/>
<path d="M70.0399 48.9886C67.7816 49.4463 66.0049 49.9529 64.7097 50.5086C63.4477 51.0643 62.8167 51.5709 62.8167 52.0286V98.608C62.8167 102.498 62.5344 105.75 61.9698 108.365C61.4384 110.947 60.7078 113.138 59.7779 114.935C58.8812 116.733 57.8351 118.22 56.6395 119.397C55.4439 120.607 54.1986 121.734 52.9033 122.78C52.0067 123.499 51.0103 124.137 49.9144 124.693C48.8517 125.248 47.7723 125.722 46.6764 126.114C45.5804 126.507 44.5343 126.801 43.538 126.997C42.5749 127.193 41.7778 127.291 41.1468 127.291C40.1505 127.291 39.1542 127.128 38.1579 126.801C37.1616 126.507 36.2815 126.147 35.5177 125.722C34.7538 125.33 34.1394 124.905 33.6745 124.447C33.1763 124.022 32.9272 123.663 32.9272 123.369C32.9272 123.107 33.1431 122.731 33.5749 122.241C34.0066 121.751 34.5213 121.26 35.1191 120.77C35.7169 120.28 36.3479 119.806 37.0121 119.348C37.6763 118.923 38.2409 118.629 38.7059 118.466C39.6358 119.054 40.4494 119.528 41.1468 119.887C41.8443 120.28 42.4919 120.574 43.0897 120.77C43.6874 120.966 44.252 121.097 44.7834 121.162C45.348 121.228 45.9458 121.26 46.5768 121.26C47.4402 121.26 48.3535 120.983 49.3166 120.427C50.3129 119.871 51.2096 118.874 52.0067 117.436C52.8369 116.03 53.5177 114.085 54.0491 111.601C54.5805 109.117 54.8462 105.963 54.8462 102.138V52.0286C54.8462 51.8324 54.7133 51.62 54.4476 51.3912C54.1819 51.1624 53.6838 50.9172 52.9532 50.6557C52.2557 50.3942 51.276 50.1327 50.014 49.8712C48.752 49.577 47.1247 49.2828 45.1321 48.9886V46.8803H70.0399V48.9886Z" fill="#EEDCA9"/>
<path d="M150.451 48.9886C148.192 49.4463 146.416 49.9529 145.12 50.5086C143.858 51.0643 143.227 51.5709 143.227 52.0286V98.608C143.227 102.498 142.945 105.75 142.38 108.365C141.849 110.947 141.118 113.138 140.189 114.935C139.292 116.733 138.246 118.22 137.05 119.397C135.855 120.607 134.609 121.734 133.314 122.78C132.417 123.499 131.421 124.137 130.325 124.693C129.262 125.248 128.183 125.722 127.087 126.114C125.991 126.507 124.945 126.801 123.949 126.997C122.986 127.193 122.188 127.291 121.557 127.291C120.561 127.291 119.565 127.128 118.569 126.801C117.572 126.507 116.692 126.147 115.928 125.722C115.164 125.33 114.55 124.905 114.085 124.447C113.587 124.022 113.338 123.663 113.338 123.369C113.338 123.107 113.554 122.731 113.985 122.241C114.417 121.751 114.932 121.26 115.53 120.77C116.128 120.28 116.759 119.806 117.423 119.348C118.087 118.923 118.652 118.629 119.117 118.466C120.046 119.054 120.86 119.528 121.557 119.887C122.255 120.28 122.903 120.574 123.5 120.77C124.098 120.966 124.663 121.097 125.194 121.162C125.759 121.228 126.356 121.26 126.987 121.26C127.851 121.26 128.764 120.983 129.727 120.427C130.724 119.871 131.62 118.874 132.417 117.436C133.248 116.03 133.928 114.085 134.46 111.601C134.991 109.117 135.257 105.963 135.257 102.138V52.0286C135.257 51.8324 135.124 51.62 134.858 51.3912C134.593 51.1624 134.094 50.9172 133.364 50.6557C132.666 50.3942 131.687 50.1327 130.425 49.8712C129.163 49.577 127.535 49.2828 125.543 48.9886V46.8803H150.451V48.9886Z" fill="#EEDCA9"/>
<rect x="2" y="2.22388" width="182" height="169.776" stroke="#EEDCA9" stroke-width="4"/>
<path d="M44.2909 154.343H19.6567V19.8806H166.343V154.343H137.41" stroke="#EEDCA9" stroke-width="4" stroke-linecap="square"/>
</svg>
